<svg width="20" height="18" viewBox="0 0 20 18" fill="none" xmlns="http://www.w3.org/2000/svg">
<path d="M9.85815 12.3465C8.7329 10.963 7.7073 9.51607 6.78776 8.0145C8.05591 5.78175 9.16825 3.14175 9.16825 0.75C9.16825 0.551088 9.08043 0.360322 8.9242 0.21967C8.76797 0.0790177 8.55601 0 8.33504 0C8.11406 0 7.90213 0.0790177 7.74587 0.21967C7.58961 0.360322 7.50183 0.551088 7.50183 0.75C7.38332 2.69144 6.81723 4.58943 5.83957 6.32325C4.85926 4.58992 4.29034 2.69195 4.16898 0.75C4.16898 0.551088 4.08119 0.360322 3.92494 0.21967C3.76868 0.0790177 3.55675 0 3.33577 0C3.11478 0 2.90286 0.0790177 2.7466 0.21967C2.59034 0.360322 2.50256 0.551088 2.50256 0.75C2.50256 3.1305 3.62073 5.775 4.89221 8.01375C3.97592 9.519 2.94732 10.9665 1.81349 12.3465C1.37657 12.5469 0.99436 12.8318 0.694315 13.181C0.394269 13.5301 0.183829 13.9347 0.0781077 14.3656C-0.0276136 14.7967 -0.0259929 15.2434 0.0828534 15.6738C0.1917 16.1041 0.405071 16.5075 0.707644 16.8548C1.01022 17.2022 1.39448 17.4849 1.83285 17.6827C2.27121 17.8805 2.7528 17.9885 3.24303 17.9989C3.73325 18.0093 4.21995 17.9218 4.66817 17.7428C5.11639 17.5638 5.51501 17.2976 5.8354 16.9635C6.156 17.2968 6.55453 17.5621 7.00243 17.7404C7.45034 17.9188 7.93653 18.0057 8.42619 17.995C8.91579 17.9842 9.39672 17.8762 9.83449 17.6785C10.2723 17.4808 10.6559 17.1984 10.9582 16.8515C11.2604 16.5047 11.4737 16.1018 11.5826 15.6721C11.6916 15.2422 11.6936 14.7961 11.5885 14.3655C11.4833 13.9349 11.2737 13.5306 10.9746 13.1815C10.6754 12.8325 10.2942 12.5473 9.85815 12.3465ZM3.33577 16.5C3.00618 16.5 2.684 16.412 2.40995 16.2472C2.13591 16.0824 1.92232 15.8481 1.79619 15.574C1.67007 15.2999 1.63707 14.9984 1.70136 14.7074C1.76566 14.4164 1.92437 14.1491 2.15743 13.9394C2.39048 13.7296 2.68741 13.5867 3.01067 13.5288C3.33392 13.471 3.66899 13.5007 3.97348 13.6142C4.27798 13.7277 4.53824 13.92 4.72135 14.1667C4.90446 14.4134 5.00219 14.7033 5.00219 15C5.00219 15.3978 4.82662 15.7793 4.5141 16.0606C4.20159 16.342 3.77773 16.5 3.33577 16.5ZM4.07149 12.0787C4.55892 11.4457 5.1855 10.5855 5.83957 9.57225C6.49281 10.5847 7.11772 11.4473 7.60348 12.078C6.91594 12.2203 6.29664 12.556 5.8354 13.0365C5.37495 12.5572 4.75731 12.2218 4.07149 12.0787ZM8.33504 16.5C8.00545 16.5 7.68327 16.412 7.40922 16.2472C7.13518 16.0824 6.92159 15.8481 6.79546 15.574C6.66934 15.2999 6.63634 14.9984 6.70063 14.7074C6.76493 14.4164 6.92364 14.1491 7.1567 13.9394C7.38975 13.7296 7.68668 13.5867 8.00993 13.5288C8.33319 13.471 8.66824 13.5007 8.97278 13.6142C9.27723 13.7277 9.53753 13.92 9.72059 14.1667C9.90373 14.4134 10.0015 14.7033 10.0015 15C10.0015 15.3978 9.8259 15.7793 9.51337 16.0606C9.20083 16.342 8.77697 16.5 8.33504 16.5ZM15.0007 4.5V6H19.1668C19.3878 6 19.5997 6.07902 19.756 6.21967C19.9122 6.36032 20 6.55109 20 6.75C20 6.94891 19.9122 7.13968 19.756 7.28033C19.5997 7.42098 19.3878 7.5 19.1668 7.5H15.0007V9H19.1668C19.3878 9 19.5997 9.07905 19.756 9.21968C19.9122 9.3603 20 9.5511 20 9.75C20 9.9489 19.9122 10.1397 19.756 10.2803C19.5997 10.4209 19.3878 10.5 19.1668 10.5H15.0007V12H19.1668C19.3878 12 19.5997 12.0791 19.756 12.2197C19.9122 12.3603 20 12.5511 20 12.75C20 12.9489 19.9122 13.1397 19.756 13.2803C19.5997 13.4209 19.3878 13.5 19.1668 13.5H15.0007V17.25C15.0007 17.4489 14.9129 17.6397 14.7567 17.7803C14.6005 17.9209 14.3885 18 14.1675 18C13.9466 18 13.7346 17.9209 13.5784 17.7803C13.4221 17.6397 13.3343 17.4489 13.3343 17.25V3.75C13.3356 2.75581 13.775 1.80267 14.556 1.09967C15.337 0.396662 16.3959 0.0011909 17.5004 0H19.1668C19.3878 0 19.5997 0.0790177 19.756 0.21967C19.9122 0.360322 20 0.551088 20 0.75C20 0.948915 19.9122 1.13968 19.756 1.28033C19.5997 1.42098 19.3878 1.5 19.1668 1.5H17.5004C16.9852 1.50192 16.4833 1.64706 16.0633 1.91557C15.6433 2.18407 15.3258 2.56282 15.154 3H19.1668C19.3878 3 19.5997 3.07902 19.756 3.21967C19.9122 3.36032 20 3.55109 20 3.75C20 3.94891 19.9122 4.13968 19.756 4.28033C19.5997 4.42098 19.3878 4.5 19.1668 4.5H15.0007Z" fill="black"/>
</svg>
