<svg width="20" height="18" viewBox="0 0 20 18" fill="none" xmlns="http://www.w3.org/2000/svg">
<path d="M19 9.6L18.3086 10.2568C17.5652 10.9631 16.4081 10.9926 15.6295 10.3253L14.8016 9.6156C14.0526 8.9737 12.9474 8.9737 12.1984 9.6156L11.3016 10.3844C10.5526 11.0263 9.4474 11.0263 8.6984 10.3844L7.80158 9.6156C7.0526 8.9737 5.9474 8.9737 5.19842 9.6156L4.37045 10.3253C3.5919 10.9926 2.4348 10.963 1.69138 10.2568L1 9.6M10 1C4.73593 1 2.5508 2.71052 1.64374 4.13061C1.04915 5.06149 1.89543 6 3 6H17C18.1046 6 18.9508 5.06149 18.3563 4.13061C17.4492 2.71052 15.2641 1 10 1ZM2.5 14H17.5C18.3284 14 19 14.6716 19 15.5C19 16.3284 18.3284 17 17.5 17H2.5C1.67157 17 1 16.3284 1 15.5C1 14.6716 1.67157 14 2.5 14Z" stroke="black" stroke-width="1.4" stroke-linecap="round" stroke-linejoin="round"/>
</svg>
