<svg width="100%" height="100%" viewBox="0 0 20 20" fill="none" xmlns="http://www.w3.org/2000/svg">
  <path
    d="M17 12H3C1.89543 12 1 12.8954 1 14V17C1 18.1046 1.89543 19 3 19H17C18.1046 19 19 18.1046 19 17V14C19 12.8954 18.1046 12 17 12Z"
    stroke="currentColor" stroke-width="1.4" />
  <path d="M8 1.5H3C1.89543 1.5 1 2.39543 1 3.5V6.5C1 7.60455 1.89543 8.5 3 8.5H8" stroke="currentColor"
    stroke-width="1.4" stroke-linecap="round" />
  <path
    d="M15 9C17.2091 9 19 7.20914 19 5C19 2.79086 17.2091 1 15 1C12.7909 1 11 2.79086 11 5C11 7.20914 12.7909 9 15 9Z"
    stroke="currentColor" stroke-width="1.4" />
  <path
    d="M15 6.5C15.8284 6.5 16.5 5.82843 16.5 5C16.5 4.17157 15.8284 3.5 15 3.5C14.1716 3.5 13.5 4.17157 13.5 5C13.5 5.82843 14.1716 6.5 15 6.5Z"
    fill="currentColor" />
</svg>