<svg width="14" height="21" viewBox="0 0 14 21" fill="none" xmlns="http://www.w3.org/2000/svg">
<path d="M6.7002 0.700195V2.9502" stroke="currentColor" stroke-width="1.4" stroke-linecap="round" stroke-linejoin="round"/>
<path d="M6.7002 17.9502V20.2002" stroke="currentColor" stroke-width="1.4" stroke-linecap="round" stroke-linejoin="round"/>
<path d="M11.9502 6.7002C11.9502 6.20774 11.8532 5.72011 11.6647 5.26514C11.4763 4.81017 11.2001 4.39677 10.8519 4.04855C10.5036 3.70033 10.0902 3.42411 9.63529 3.23565C9.18029 3.0472 8.6927 2.9502 8.2002 2.9502H4.8252C3.83064 2.9502 2.87681 3.34529 2.17355 4.04855C1.47029 4.75181 1.0752 5.70564 1.0752 6.7002C1.0752 7.69476 1.47029 8.6486 2.17355 9.3519C2.87681 10.0551 3.83064 10.4502 4.8252 10.4502H8.9502C9.9448 10.4502 10.8986 10.8453 11.6019 11.5485C12.3051 12.2518 12.7002 13.2056 12.7002 14.2002C12.7002 15.1948 12.3051 16.1486 11.6019 16.8519C10.8986 17.5551 9.9448 17.9502 8.9502 17.9502H4.4502C3.45564 17.9502 2.50181 17.5551 1.79855 16.8519C1.09529 16.1486 0.700195 15.1948 0.700195 14.2002" stroke="black" stroke-width="1.4" stroke-linecap="round" stroke-linejoin="round"/>
</svg>
