<svg width="16" height="22" viewBox="0 0 16 22" fill="none" xmlns="http://www.w3.org/2000/svg">
<path d="M7.70886 1C8.70346 1 9.65726 1.39509 10.3606 2.09835C11.0638 2.80161 11.4589 3.75544 11.4589 4.75V10.75C11.4589 11.7446 11.0638 12.6984 10.3606 13.4017C9.65726 14.1049 8.70346 14.5 7.70886 14.5C7.21636 14.5 6.72876 14.403 6.27376 14.2145C5.81886 14.0261 5.40543 13.7499 5.05721 13.4017C4.70899 13.0534 4.43277 12.64 4.24431 12.1851C4.05586 11.7301 3.95886 11.2425 3.95886 10.75V4.74999C3.95886 3.75543 4.35395 2.80161 5.05721 2.09835C5.76046 1.39509 6.71426 1 7.70886 1Z" stroke="black" stroke-width="2" stroke-linecap="round" stroke-linejoin="round"/>
<path d="M7.70886 17.5V20.5" stroke="black" stroke-width="2" stroke-linecap="round" stroke-linejoin="round"/>
<path d="M14.4178 11.5C14.2331 13.1501 13.4468 14.6743 12.2092 15.7812C10.9715 16.8881 9.36936 17.5 7.70896 17.5C6.04846 17.5 4.44634 16.8881 3.2087 15.7812C1.97106 14.6743 1.18476 13.1501 1.00012 11.5" stroke="black" stroke-width="2" stroke-linecap="round" stroke-linejoin="round"/>
</svg>
