<svg width="20" height="17" viewBox="0 0 20 17" fill="none" xmlns="http://www.w3.org/2000/svg">
  <path
    d="M7.73438 0L7.24219 1.5H5.10938C4.11915 1.5 3.23731 2.14453 2.95313 3.09375L1.92188 6.53906L0.46876 6.04688L0 7.4531L1.47657 7.9453L1.00782 9.5391C0.99024 9.6064 0.98145 9.6797 0.98438 9.75V15C0.98438 15.0234 0.98438 15.0469 0.98438 15.0703V15.75C0.98438 16.1631 1.32129 16.5 1.73438 16.5H3.98438L4.24219 15.75H15.7266L15.9844 16.5H18.2344C18.6475 16.5 18.9844 16.1631 18.9844 15.75V15.1172C18.9873 15.0791 18.9873 15.0381 18.9844 15V9.75C18.9873 9.6797 18.9785 9.6064 18.961 9.5391L18.4922 7.9453L19.9688 7.4531L19.5 6.04688L18.0469 6.53906L17.0156 3.09375C16.7315 2.14453 15.8496 1.5 14.8594 1.5H12.7266L12.2344 0H7.73438ZM5.10938 3H14.8594C15.1934 3 15.4893 3.21973 15.586 3.53906L16.5469 6.75H3.42188L4.38282 3.53906C4.4795 3.2168 4.7754 3 5.10938 3ZM2.97657 8.25H16.9922L17.4844 9.8906V14.25H2.48438V9.8906L2.97657 8.25ZM4.35938 9C3.73829 9 3.23438 9.5039 3.23438 10.125C3.23438 10.7461 3.73829 11.25 4.35938 11.25C4.98047 11.25 5.48438 10.7461 5.48438 10.125C5.48438 9.5039 4.98047 9 4.35938 9ZM15.6094 9C14.9883 9 14.4844 9.5039 14.4844 10.125C14.4844 10.7461 14.9883 11.25 15.6094 11.25C16.2305 11.25 16.7344 10.7461 16.7344 10.125C16.7344 9.5039 16.2305 9 15.6094 9ZM6.98438 11.25L6.04688 13.5H7.66407L7.99218 12.75H11.9766L12.3047 13.5H13.9219L12.9844 11.25H6.98438Z"
    fill="currentColor" />
</svg>